<?xml version="1.0" encoding="iso-8859-1"?>
<!-- Uploaded to: SVG Repo, www.svgrepo.com, Generator: SVG Repo Mixer Tools -->
<svg height="800px" width="800px" version="1.1" id="Layer_1" xmlns="http://www.w3.org/2000/svg" xmlns:xlink="http://www.w3.org/1999/xlink" 
	 viewBox="0 0 512 512" xml:space="preserve">
<path style="fill:#F9EC86;" d="M512,256c0,141.384-114.616,256-256,256S0,397.384,0,256S114.616,0,256,0S512,114.616,512,256z"/>
<path style="fill:#415E70;" d="M256,440.747H34.548l-2.187-7.484l48.263-119.085c23.433-57.805,57.808-111.415,128.457-111.415
	h0.002c14.898,0,32.685,0,46.917,0V440.747z"/>
<path style="fill:#234556;" d="M434.087,440.747H241.51l2.187-237.983c14.232,0,29.832,0,44.73,0h0.002
	c70.649,0,105.025,53.61,128.457,111.415l17.2,42.439V440.747z"/>
<path style="fill:#071C23;" d="M393.218,491.25c-12.887,6.765-26.92,10.194-41.067,10.194c-8.875,0-17.793-1.349-26.507-4.07
	c-22.603-7.059-41.106-22.507-52.103-43.497c-22.695-43.326-5.948-97.061,37.33-119.785l0,0
	c20.971-11.009,44.969-13.183,67.575-6.125c22.603,7.059,41.107,22.506,52.104,43.497
	C453.247,414.791,436.499,468.527,393.218,491.25z"/>
<path style="fill:#FFA14A;" d="M241.092,0c36.599,0,66.263,29.702,66.263,66.34c0,36.639-29.664,66.339-66.263,66.339
	c-36.597,0-66.266-29.7-66.266-66.339C174.827,29.702,204.496,0,241.092,0L241.092,0z"/>
<path style="fill:#EA8939;" d="M307.355,66.34c0,36.639-29.664,66.339-66.263,66.339c-26.917,0-50.07-16.077-60.443-39.155
	c9.589,4.263,20.194,6.65,31.361,6.65c42.74,0,77.381-34.684,77.381-77.469c0-0.605-0.032-1.204-0.046-1.806
	C300.505,32.771,307.355,48.75,307.355,66.34z"/>
<path style="fill:#DC2C13;" d="M346.154,179.771c-30.226,57.35-74.163,110.523-130.591,158.046
	C160.119,384.51,95.441,423.404,23.327,453.417c-1.258,0.523-2.562,0.771-3.846,0.771c-3.925,0-7.65-2.321-9.253-6.171
	c-2.126-5.108,0.292-10.971,5.399-13.097c141.165-58.753,255.176-155.156,312.801-264.491c2.579-4.894,8.637-6.772,13.532-4.192
	C346.857,168.818,348.733,174.877,346.154,179.771z"/>
<path style="fill:#789EBD;" d="M492.469,395.76c-0.548,0.09-1.093,0.134-1.631,0.134c-4.821,0-9.069-3.488-9.874-8.4
	c-4.279-26.125-15.955-50.422-33.768-70.262c-3.695-4.117-3.355-10.45,0.762-14.146c4.116-3.695,10.45-3.355,14.146,0.762
	c20.373,22.694,33.732,50.499,38.63,80.408C501.631,389.715,497.929,394.866,492.469,395.76z M211.395,425.118
	c-0.869-5.464-6.006-9.189-11.467-8.32c-5.464,0.869-9.188,6.003-8.32,11.467c4.769,29.987,18.178,57.808,38.774,80.457
	c1.977,2.174,4.69,3.278,7.414,3.278c2.405,0,4.818-0.86,6.737-2.607c4.093-3.722,4.393-10.057,0.672-14.15
	C227.241,475.489,215.55,451.24,211.395,425.118z"/>
<path style="fill:#893912;" d="M439.886,366.563c-12.304-23.486-33.008-40.77-58.299-48.668c-25.294-7.898-52.146-5.465-75.61,6.853
	l0,0c-48.425,25.425-67.163,85.55-41.769,134.028c12.304,23.486,33.008,40.771,58.298,48.669c9.75,3.045,19.729,4.555,29.659,4.555
	c15.829,0,31.53-3.838,45.95-11.406C446.541,475.169,465.28,415.044,439.886,366.563z M314.794,341.544L314.794,341.544
	c18.973-9.961,40.685-11.928,61.136-5.541c17.407,5.436,32.111,16.387,42.244,31.234l-141.057,74.055
	C262.816,403.833,278.467,360.618,314.794,341.544z M389.296,483.797c-18.973,9.961-40.685,11.928-61.136,5.542
	c-17.408-5.437-32.112-16.388-42.246-31.238l141.058-74.056C441.278,421.504,425.628,464.722,389.296,483.797z"/>
<path style="fill:#BE5924;" d="M375.953,400.12c6.925,13.217,1.833,29.551-11.365,36.482c-13.206,6.932-29.52,1.835-36.445-11.381
	c-6.925-13.217-1.835-29.551,11.369-36.484C352.713,381.807,369.027,386.902,375.953,400.12z M393.218,491.25
	c-12.887,6.765-26.92,10.194-41.067,10.194c-8.875,0-17.793-1.349-26.507-4.07c-22.603-7.059-41.106-22.507-52.103-43.497
	c-22.695-43.326-5.948-97.061,37.33-119.785l0,0c20.971-11.009,44.969-13.183,67.575-6.125
	c22.603,7.059,41.107,22.506,52.104,43.497C453.247,414.791,436.499,468.527,393.218,491.25z M415.533,379.331
	c-8.894-16.977-23.859-29.471-42.14-35.18c-18.277-5.709-37.682-3.95-54.639,4.953l0,0c-35.01,18.382-48.554,61.854-30.194,96.907
	c8.894,16.978,23.859,29.472,42.138,35.181c18.277,5.708,37.682,3.949,54.639-4.952
	C420.349,457.857,433.894,414.385,415.533,379.331z"/>
<path style="fill:#E69724;" d="M344.402,398.08c8.051-4.225,17.996-1.12,22.219,6.94c4.222,8.058,1.117,18.017-6.93,22.242
	c-8.052,4.226-17.998,1.12-22.22-6.939C333.25,412.265,336.353,402.306,344.402,398.08L344.402,398.08z"/>
</svg>